# xmcd
#
# Track frame offsets: 
#        150
#        18488
#        34310
#        46469
#        59809
#        88278
#        104778
#        120308
#        145090
#        163451
#        179132
#        205356
#
# Disc length: 2928 seconds
#
# Revision: 0
# Processed by: cddbd v1.5.2PL0 Copyright (c) Steve Scherf et al.
# Submitted via: ExactAudioCopy v0.99pb5
#
DISCID=c10b6e0c
DTITLE=Old wave - Cztery grosze
DYEAR=1900
DGENRE=Blues
TTITLE0=01.Cztery grosze
TTITLE1=02.Blues dla przyjaciol
TTITLE2=03.Codzienny rock n roll
TTITLE3=04.Eldorado
TTITLE4=05.Firma Zsyp
TTITLE5=06.Katarakta
TTITLE6=07.Moj poranny blues
TTITLE7=08.Nie chce
TTITLE8=09.Pisze podanie
TTITLE9=10.Dotkniecie Midasa
TTITLE10=11.Zamienie
TTITLE11=12.Zamien moje serce
EXTD=
EXTT0=
EXTT1=
EXTT2=
EXTT3=
EXTT4=
EXTT5=
EXTT6=
EXTT7=
EXTT8=
EXTT9=
EXTT10=
EXTT11=
PLAYORDER=
